<svg xmlns="http://www.w3.org/2000/svg" viewBox="0 0 662.48 111.7"><defs><style>.cls-1{fill:#f2f2f2;}.cls-2{fill:#c6c6c6;}</style></defs><title>Asset 2logo-CN-white</title><g id="Layer_2" data-name="Layer 2"><g id="Layer_4" data-name="Layer 4"><path class="cls-1" d="M0,37.87C0,15.62,17.07,0,40.35,0,54.53,0,65.7,5.17,72.84,14.49L57.43,28.25c-4.25-5.38-9.32-8.49-15.84-8.49-10.14,0-17,7-17,18.11S31.45,56,41.59,56c6.52,0,11.59-3.11,15.84-8.49L72.84,61.25C65.7,70.57,54.53,75.74,40.35,75.74,17.07,75.74,0,60.12,0,37.87Z"/><path class="cls-1" d="M221.56,74.08l-.21-33L205.63,67.57H194.87L179.14,42.21V74.08H156.89V1.66H177l23.6,38.59,23-38.59H243.6l.21,72.42Z"/><path class="cls-1" d="M313.89,29c0,16.76-12.83,27.32-33,27.32H270.43V74.08H246V1.66h34.87C301.06,1.66,313.89,12.21,313.89,29Zm-24.63,0c0-5.28-3.2-8.48-9.93-8.48h-8.9v17h8.9C286.06,37.46,289.26,34.25,289.26,29Z"/><path class="cls-1" d="M347.31,55.87h-6.62V74.08H316.27V1.66h34.87c20.18,0,33,10.55,33,27.31,0,10.45-5,18.32-13.66,22.76L385.7,74.08H359.62Zm2.28-35.38h-8.9v17h8.9c6.72,0,9.93-3.21,9.93-8.49S356.31,20.49,349.59,20.49Z"/><path class="cls-1" d="M452.91,34.47,438.57,1.66h-24L382.9,74.09h24.83l4.87-12.63h27.52L445,74.09h23.81l.45-2.26Zm-33.59,9.4,7-18.21,7,18.21Z"/><path class="cls-1" d="M452.91,34.47,438.57,1.66h-24L382.9,74.09h24.83l4.87-12.63h27.52L445,74.09h23.81l.45-2.26Zm-33.59,9.4,7-18.21,7,18.21Z"/><path class="cls-2" d="M507.07,1.66l-6.73,33.73L479.55,1.66H459.47l-6.56,32.81L445,74.09h23.8l.45-2.26,6.27-31.47,20.8,33.73h20.07L530.87,1.66Z"/><path class="cls-2" d="M589.22,20.07,593,1.66H534.07L519.59,74.09h60.22l3.72-18.42H547.21l1.87-9.52h30.73l3.52-17.59H552.7l1.65-8.49Z"/><path class="cls-2" d="M595.64,1.66l-3.83,18.93H613l-10.66,53.5h24.42l10.66-53.5h21.21l3.83-18.93Z"/><path class="cls-1" d="M124.69,69.46l3.83,3.7a42.58,42.58,0,0,1-14.82,2.58c-22.41,0-38.8-15.93-38.8-37.87,0-.81,0-1.62.07-2.4a38.52,38.52,0,0,1,3.12-13.38,32.55,32.55,0,0,1,2.33-4.51l6,4,2.06-1.08,3.24,1.08v1.92l4.66,1.62V29.9L99,36.15l3,6.36L101.72,44l1.48.49.61,3.22L108,53l3.11,2.16,2.58,2.7h1l.81,1.25.81-.61,2.45.9-.76,1.89.22,1.84,2.77,3.39,3,.57.49,1.61Z"/><path class="cls-1" d="M152.52,37.87c0,12.94-5.69,23.78-15,30.51L136,62.93l-2.41-3-1.62-4.67,3.41-.56,1.7-1-.89-1.81.27-1.38-1.3-1-.19-5,1.62-2.23-1.08-4.15,1.15-.27-1.08-2,1.13-2.19-3.44-3.11-.68-5.85,1.08.1.41-1.18-20.32.05L84.37,12.3C91.32,4.62,101.65,0,113.7,0,136.13,0,152.52,15.93,152.52,37.87Z"/><path class="cls-2" d="M444.72,109l3.51-6.71a18.09,18.09,0,0,0,9.1,2.5c2.35,0,3.58-.61,3.58-1.58,0-2.85-12.84-1.19-12.84-9.56,0-6.13,5.13-10.14,13.65-10.14a20.1,20.1,0,0,1,10.1,2.31l-3.27,6.64a14,14,0,0,0-7.41-2c-2.66,0-4,.89-4,1.81,0,3,12.88,1.08,12.88,9.41,0,6-5.24,10.06-13.65,10.06C451.58,111.7,447.3,110.55,444.72,109Z"/><path class="cls-2" d="M472.52,99.64c0-9.53,7.1-16.16,17-16.16,8.4,0,13.68,5,13.68,12.07,0,9.52-7.09,16.15-17,16.15C477.8,111.7,472.52,106.73,472.52,99.64ZM494,96.09a4.91,4.91,0,0,0-5.29-5.25c-4.47,0-7.05,3.82-7.05,8.26a4.9,4.9,0,0,0,5.28,5.24C491.45,104.34,494,100.52,494,96.09Z"/><path class="cls-2" d="M535.72,84.1l-5.4,27h-7.48l-7.75-12.57-2.51,12.57h-8.86l5.39-27h7.49l7.75,12.57,2.5-12.57Z"/><path class="cls-2" d="M536.22,99.64c0-9.53,7.1-16.16,17-16.16,8.4,0,13.69,5,13.69,12.07,0,9.52-7.1,16.15-17,16.15C541.51,111.7,536.22,106.73,536.22,99.64Zm21.52-3.55a4.91,4.91,0,0,0-5.28-5.25c-4.48,0-7.06,3.82-7.06,8.26a4.91,4.91,0,0,0,5.28,5.24C555.16,104.34,557.74,100.52,557.74,96.09Z"/><path class="cls-2" d="M588.86,103.22l4.51,7.87h-9.45l-3.82-6.79h-2.23l-1.35,6.79h-9.1l5.4-27h12.1c7.14,0,11.23,3.27,11.23,8.86A10.58,10.58,0,0,1,588.86,103.22Zm-5.32-12.11h-3l-1.27,6.33H583c2.5,0,4-1.31,4-3.59C586.93,91.92,585.62,91.11,583.54,91.11Z"/><path class="cls-2" d="M615.81,106.38H605.52l-2.7,4.71h-9.6l17.19-27h9l6.4,27H616.7Zm-1.27-6.55-1.31-6.9-4,6.9Z"/></g></g></svg>