<?xml version="1.0" encoding="UTF-8"?>
<svg id="Layer_2" data-name="Layer 2" xmlns="http://www.w3.org/2000/svg" viewBox="0 0 155 25.01">
  <defs>
    <style>
      .cls-1 {
        fill: #fff;
      }

      .cls-2 {
        fill: #dadada;
      }
    </style>
  </defs>
  <g id="Capa_1" data-name="Capa 1">
    <g>
      <g>
        <path class="cls-1" d="M9.83,10.49c-.5.29-1.07.43-1.71.43-.5,0-.95-.08-1.35-.24-.4-.16-.75-.4-1.04-.71s-.51-.68-.68-1.12c-.16-.44-.24-.93-.24-1.46s.08-1.03.24-1.46c.16-.44.39-.81.68-1.12.29-.31.64-.54,1.04-.71.4-.16.85-.24,1.35-.24.63,0,1.2.14,1.71.44.5.29.97.7,1.38,1.22l3.01-2.69c-.7-.91-1.58-1.61-2.65-2.1-1.07-.48-2.3-.73-3.69-.73-1.13,0-2.18.18-3.14.54-.96.36-1.8.87-2.5,1.52-.71.66-1.26,1.44-1.65,2.34-.39.9-.59,1.9-.59,2.99s.2,2.09.59,2.99c.39.9.94,1.68,1.65,2.34.71.66,1.54,1.17,2.5,1.52.96.36,2.01.54,3.14.54,1.39,0,2.61-.25,3.69-.74,1.07-.49,1.96-1.19,2.65-2.09l-3.01-2.69c-.42.52-.88.93-1.38,1.22Z"/>
        <path class="cls-1" d="M24.92,14.1c-.11.05-.23.09-.34.14-.97.36-2.03.54-3.19.54s-2.2-.18-3.18-.54c-.98-.36-1.82-.88-2.53-1.55-.71-.67-1.27-1.45-1.67-2.35-.4-.9-.6-1.88-.6-2.95s.2-2.06.6-2.96c.25-.57.57-1.09.95-1.56.05.16,0,.35.19.48.26.17.57.24.79.46.1.1.22.18.34.24.16.07.32.08.39-.13.02-.06.04-.06.08-.06.2,0,.47.2.51.4.02.15.1.2.24.24.2.07.42,0,.61.15.15.11.21.21.14.39-.15.39-.13.67.16,1,.01.02.03.03.04.04.19.2.23.46.32.69.08.2.02.43.2.63.14.16.2.38.35.55.07.08.16.18.08.33-.05.09.02.18.13.16.19-.04.17.08.2.2.05.17.03.36.14.5.13.15.27.3.49.38-.12.02-.19.06-.09.14.26.2.33.63.75.65.01,0,.03.03.04.04.04.17.16.31.26.45.03.04.05.08.08.12.1.14.21.27.44.22.04,0,.08.02.09.08.01.08.07.1.14.12.02-.07-.01-.15.05-.21.14.18.38.1.56.21-.05.02-.11.04-.12.07-.05.12.07.27-.06.38-.01,0,.02.07.02.1.04.2.15.34.27.5.17.24.43.49.69.43.24-.05.26.06.27.22,0,.12.05.23.09.34.08.22.39.36.53.21.1-.1.14-.04.18,0,.12.16.3.3.36.5Z"/>
        <path class="cls-1" d="M29.36,7.39c0,1.06-.2,2.05-.6,2.95-.4.9-.95,1.69-1.67,2.35-.29.27-.6.51-.93.73.07-.1.04-.23.08-.34.04-.1-.11-.09-.15-.14-.1-.14-.29-.25-.17-.5.06-.12.06-.36-.02-.43-.14-.13-.18-.31-.3-.44-.19-.22-.4-.42-.48-.72-.06-.23-.02-.34.23-.36.16-.02.32.04.48.07.16.04.33-.09.26-.21-.16-.31-.11-.64-.14-.97-.03-.3-.07-.6-.1-.9,0-.06-.06-.16.05-.18.11-.03.11-.11.11-.19.02-.63.16-1.25.06-1.88-.03-.19-.1-.31-.28-.38-.41-.16-.54-.38-.49-.82.02-.13.03-.26.06-.4.03-.18-.02-.24-.21-.24-.66,0-1.31,0-1.97,0-.39,0-.79,0-1.18,0-.14,0-.28,0-.41-.06-.35-.13-.71-.26-1.06-.39-1.29-.47-2.59-.95-3.88-1.42-.35-.13-.71-.26-1.06-.38.03-.03.05-.05.08-.08.71-.67,1.56-1.18,2.53-1.54C19.18.18,20.24,0,21.39,0s2.22.18,3.19.55c.97.36,1.81.88,2.52,1.54.71.67,1.27,1.45,1.67,2.34.4.9.6,1.88.6,2.96Z"/>
        <path class="cls-1" d="M46.41.32h-3.92l-4.48,7.52L33.4.32h-3.92v14.13h4.34v-6.22l3.07,4.95h2.1l3.08-5.17.03,6.45h4.34l-.04-14.13Z"/>
        <path class="cls-1" d="M59.37,2.82c-.52-.8-1.27-1.42-2.23-1.85-.96-.43-2.1-.65-3.42-.65h-6.81v14.13h4.77v-3.47h2.04c1.32,0,2.46-.22,3.42-.66.96-.44,1.71-1.05,2.23-1.85.52-.79.79-1.74.79-2.83s-.26-2.04-.79-2.84ZM54.88,6.87c-.32.3-.81.44-1.46.44h-1.74v-3.31h1.74c.66,0,1.15.15,1.46.44.32.3.47.7.47,1.21s-.16.92-.47,1.21Z"/>
        <path class="cls-1" d="M73.25,13.58l-2.36-3.47c.79-.4,1.42-.95,1.88-1.64.52-.79.79-1.73.79-2.82s-.26-2.04-.79-2.84c-.52-.8-1.27-1.42-2.23-1.85-.96-.43-2.1-.65-3.42-.65h-6.81v14.13h4.77v-3.55h1.3l2.4,3.55h5.09l-.6-.88ZM68.27,6.87c-.32.3-.81.44-1.47.44h-1.74v-3.31h1.74c.66,0,1.15.15,1.47.44.32.3.47.7.47,1.21s-.16.92-.47,1.21Z"/>
        <path class="cls-1" d="M83.72.32h-4.68s-1.66,3.81-3.21,7.34c-1.34,3.06-2.58,5.91-2.58,5.91l-.39.88h4.85l.95-2.46h5.37l.95,2.46h0s1.59-7.94,1.59-7.94l-2.84-6.2ZM79.97,8.56l1.37-3.56,1.37,3.56h-2.74Z"/>
      </g>
      <g>
        <polygon class="cls-2" points="97.09 .33 95.78 6.9 91.72 .33 87.8 .33 84.97 14.46 89.62 14.46 90.93 7.89 94.99 14.46 98.91 14.46 101.73 .33 97.09 .33"/>
        <polygon class="cls-2" points="112.84 3.92 113.57 .33 102.08 .33 99.25 14.46 111 14.46 111.73 10.87 104.64 10.87 105.01 9.01 111 9.01 111.69 5.58 105.7 5.58 106.03 3.92 112.84 3.92"/>
        <g>
          <polygon class="cls-2" points="120.51 9.87 120.94 9.87 120.86 10.24 120.53 11.92 120.46 12.29 120.03 12.29 120.51 9.87"/>
          <polygon class="cls-2" points="129.56 .32 128.81 4.02 122.1 4.02 121.01 9.49 120.2 9.49 119.57 12.67 120.38 12.67 120.02 14.46 115.26 14.46 117.34 4.02 113.2 4.02 113.94 .32 129.56 .32"/>
        </g>
      </g>
      <g>
        <path class="cls-1" d="M130.22,10.44c.24-.37.4-.77.49-1.21.05-.26.08-.54.08-.83,0-.97-.34-1.72-1.01-2.25-.67-.54-1.63-.8-2.87-.8h-4.1l-.48,2.4h4.14c.36,0,.64.07.85.22.21.14.31.38.31.72,0,.38-.12.69-.35.9-.11.1-.24.18-.4.23l-.49,2.49c.84-.03,1.57-.19,2.2-.48.7-.32,1.24-.78,1.62-1.37Z"/>
        <path class="cls-1" d="M126.29,9.9h-1.27l.36-1.78h-3.1l-.27,1.37-.08.38h-1.41l-.48,2.43h1.4l-.07.37-.38,1.9h3.11l.45-2.26h1.47l.48-2.41c-.07,0-.14,0-.21,0Z"/>
        <polygon class="cls-1" points="134.6 5.34 131.49 5.34 129.65 14.56 136.92 14.56 137.41 12.15 133.25 12.15 134.6 5.34"/>
        <path class="cls-1" d="M153.52,9.63c-.26-.18-.55-.32-.86-.43-.31-.11-.62-.2-.94-.28-.31-.07-.6-.15-.86-.21s-.47-.14-.63-.24c-.16-.09-.24-.21-.24-.35,0-.11.05-.21.15-.3s.25-.17.45-.23c.2-.06.45-.09.75-.09.45,0,.89.06,1.32.17.43.11.84.29,1.21.51l1.12-2.27c-.43-.25-.94-.45-1.53-.59-.59-.14-1.23-.2-1.92-.2-.97,0-1.8.14-2.5.43-.7.29-1.23.69-1.61,1.21-.19.26-.33.55-.42.86l.46-2.28h-3.06l-1,5.02c-.09.46-.2.83-.35,1.11s-.32.48-.54.61-.47.18-.77.18c-.25,0-.46-.04-.63-.11-.18-.07-.31-.19-.41-.35-.1-.16-.16-.36-.18-.59-.02-.24,0-.52.07-.84l1-5.02h-3.11l-1.01,5.07c-.18.87-.13,1.63.14,2.29.27.65.72,1.16,1.36,1.53.64.36,1.44.55,2.4.55,1.41,0,2.54-.36,3.39-1.08.84-.72,1.4-1.77,1.67-3.15l.47-2.36c-.02.13-.03.27-.03.41,0,.4.08.75.24,1.03s.37.51.63.7c.26.18.55.34.86.45s.63.22.94.29c.31.07.6.15.86.22.26.07.47.15.63.24.16.09.24.2.24.34,0,.11-.05.2-.14.28-.09.08-.23.15-.41.19-.18.04-.41.07-.68.07-.34,0-.69-.03-1.03-.09-.35-.06-.69-.16-1.04-.28-.35-.13-.69-.29-1.03-.48l-1.2,2.29c.3.18.65.34,1.06.48.41.14.86.26,1.36.34s1.02.12,1.57.12c.96,0,1.79-.14,2.48-.43.7-.29,1.24-.69,1.61-1.21.38-.51.57-1.11.57-1.8,0-.4-.08-.74-.24-1.02s-.37-.51-.63-.69Z"/>
      </g>
      <g>
        <path class="cls-2" d="M89.53,17.83c.2-.06.45-.09.75-.09.45,0,.89.06,1.32.17.43.11.84.29,1.21.51l1.12-2.27c-.43-.25-.94-.45-1.53-.59-.59-.14-1.23-.2-1.92-.2-.97,0-1.8.14-2.5.43s-1.23.69-1.61,1.21c-.37.52-.56,1.13-.56,1.83,0,.4.08.75.24,1.03.16.28.37.51.63.7.26.18.55.34.86.45s.63.22.94.29c.31.07.6.15.86.22.26.07.47.15.63.24s.24.2.24.34c0,.11-.05.2-.14.28-.09.08-.23.15-.41.19-.18.04-.41.07-.68.07-.34,0-.69-.03-1.03-.09-.35-.06-.69-.16-1.04-.28-.35-.13-.69-.29-1.03-.48l-1.2,2.29c.3.18.65.34,1.06.48.41.14.86.26,1.36.34s1.02.12,1.57.12c.96,0,1.79-.14,2.48-.43.7-.29,1.24-.69,1.61-1.21.38-.51.57-1.11.57-1.8,0-.4-.08-.74-.24-1.02-.16-.28-.37-.51-.63-.69s-.55-.32-.86-.43c-.31-.11-.62-.2-.94-.28-.31-.07-.6-.14-.86-.21-.26-.07-.47-.15-.63-.24-.16-.09-.24-.21-.24-.35,0-.11.05-.21.15-.3.1-.1.25-.17.45-.23Z"/>
        <path class="cls-2" d="M103.78,15.9c-.7-.35-1.53-.53-2.48-.53-.84,0-1.62.13-2.33.4-.71.27-1.33.65-1.84,1.14-.52.49-.92,1.07-1.21,1.75-.29.67-.43,1.42-.43,2.23s.19,1.52.57,2.14.92,1.1,1.62,1.46c.7.35,1.53.53,2.48.53.84,0,1.62-.13,2.33-.4s1.33-.65,1.84-1.14c.52-.49.92-1.07,1.21-1.75.29-.67.43-1.42.43-2.23s-.19-1.52-.57-2.14-.92-1.1-1.62-1.46ZM102.68,20.75c-.11.34-.26.64-.47.9-.21.26-.46.47-.76.62-.29.15-.63.22-1.02.22s-.7-.07-.97-.22c-.27-.15-.47-.36-.62-.63-.14-.27-.22-.58-.22-.94,0-.38.05-.74.16-1.07s.26-.64.47-.9c.21-.26.47-.47.76-.62s.64-.22,1.01-.22.7.07.97.22c.27.15.47.36.62.63.14.27.22.58.22.94,0,.38-.05.74-.16,1.07Z"/>
        <polygon class="cls-2" points="114.52 19.87 111.87 15.58 109.31 15.58 107.47 24.8 110.5 24.8 111.35 20.51 114 24.8 116.56 24.8 118.4 15.58 115.37 15.58 114.52 19.87"/>
        <path class="cls-2" d="M128.19,15.9c-.7-.35-1.53-.53-2.48-.53-.84,0-1.62.13-2.33.4-.71.27-1.33.65-1.84,1.14-.52.49-.92,1.07-1.21,1.75-.29.67-.43,1.42-.43,2.23s.19,1.52.57,2.14.92,1.1,1.62,1.46c.7.35,1.53.53,2.48.53.84,0,1.62-.13,2.33-.4s1.33-.65,1.84-1.14c.52-.49.92-1.07,1.21-1.75.29-.67.43-1.42.43-2.23s-.19-1.52-.57-2.14-.92-1.1-1.62-1.46ZM127.08,20.75c-.11.34-.26.64-.47.9-.21.26-.46.47-.76.62-.29.15-.63.22-1.02.22s-.7-.07-.97-.22c-.27-.15-.47-.36-.62-.63-.14-.27-.22-.58-.22-.94,0-.38.05-.74.16-1.07s.26-.64.47-.9c.21-.26.47-.47.76-.62s.64-.22,1.01-.22.7.07.97.22c.27.15.47.36.62.63.14.27.22.58.22.94,0,.38-.05.74-.16,1.07Z"/>
        <path class="cls-2" d="M140.68,16.38c-.67-.53-1.61-.8-2.83-.8h-4.14l-1.84,9.22h3.11l.46-2.32h.76l1.31,2.32h3.23l-1.54-2.68c.1-.04.2-.08.29-.12.7-.32,1.24-.78,1.62-1.36s.57-1.26.57-2.03c0-.96-.33-1.7-1-2.23ZM138.23,18.19c.21.14.31.38.31.72,0,.39-.12.69-.36.9-.24.22-.57.32-1,.32h-1.27l.43-2.16h1.04c.36,0,.64.07.85.22Z"/>
        <path class="cls-2" d="M150.02,24.8h3.1l-2.19-9.22h-3.06l-5.88,9.22h3.28l.92-1.61h3.51l.31,1.61ZM147.49,20.96l1.35-2.35.45,2.35h-1.8Z"/>
      </g>
    </g>
  </g>
</svg>